<svg width="45" height="29" viewBox="0 0 45 29" fill="none" xmlns="http://www.w3.org/2000/svg">
<path fill-rule="evenodd" clip-rule="evenodd" d="M10.4092 0L11.8894 1.93695L13.2736 1.48408L14.6396 2.15441L16.283 5.9181V25.6917L14.5019 28.0225H11.4011L10.1887 25.6425V12.1763L9.405 11.0225H7.38746L6.60377 12.1763V25.6917L4.82267 28.0225H1.78111L0 25.6917V5.98631L0.552602 2.18973L2.12586 1.41767L2.58416 1.86748L4.39171 0.536918L10.4092 0ZM4.75923 1.5081L2.49132 3.17754L1.93074 2.62735L1.46627 2.85528L1 6.0587V25.3533L2.2755 27.0225H4.32828L5.60377 25.3533V11.8688L6.85783 10.0225H9.93462L11.1887 11.8688V25.4025L12.014 27.0225H13.1198L11.717 26.3341V11.6917L10.313 9.8544L9.97487 9.52251H6.8604L5.50979 11.29L5.07547 12.1425V25.8341L3.59436 26.5609L1.5283 25.885V2.83118L2.9935 4.26925L4.29323 2.56837L9.87842 1.47202L11.5738 3.69062L11.7706 3.88376L13.4699 2.77187L14.7547 5.92453V25.1763L13.5007 27.0225H14.0075L15.283 25.3533V6.12691L13.8699 2.89061L13.1981 2.56094L11.5257 3.10807L9.94925 1.04502L4.75923 1.5081ZM4.85771 3.47665L3.10084 5.77577L2.5283 5.21384V25.16L3.51884 25.4841L4.07547 25.2109V11.9025L4.66002 10.755L6.36601 8.52251H10.3836L11.0643 9.19062L12.717 11.3533V25.7109L13.0663 25.8823L13.7547 24.8688V6.12048L13.0018 4.27315L11.6445 5.16126L10.8225 4.3544L9.4612 2.573L4.85771 3.47665ZM18.3396 5.52251H24.6706L28 9.33491V25.7929L24.5924 28.0225H18.3396V5.52251ZM19.3396 6.52251V27.0225H24.2944L27 25.2521V9.7101L24.2162 6.52251H19.3396ZM19.8679 7.02251H24.1715L26.4717 9.84455V24.7753L24.0981 26.5225H19.8679V7.02251ZM20.8679 8.02251V25.5225H23.7698L25.4717 24.2697V10.2005L23.6965 8.02251H20.8679Z" fill="#085032"/>
<path d="M30 26V18.5L31.5 17H35L36.5 18.5V26L35 28H31.5L30 26Z" stroke="#061430"/>
<path d="M44 19.5V18L43 17H38.5V28H43L44 27V26" stroke="#061430"/>
<path d="M44 26.5V25.5H43L42.5 26L42 26.5H40V18.5H42L42.5 19V20H44V19.5M31.5 19V25.5L32.5 26.5H34L35 25.5V19.5L34 18.5H33L31.5 19Z" stroke="#061430"/>
</svg>
